<svg xmlns="http://www.w3.org/2000/svg" xml:space="preserve" width="45" height="45" version="1.1" style="shape-rendering:geometricPrecision; text-rendering:geometricPrecision; image-rendering:optimizeQuality; fill-rule:evenodd; clip-rule:evenodd"
viewBox="0 0 10000 10000"
 xmlns:xlink="http://www.w3.org/1999/xlink">
 <defs>
  <style type="text/css">
    path {
        fill: black;
    }
  </style>
 </defs>
 <g id="Layer_x0020_1">
  <metadata id="CorelCorpID_0Corel-Layer"/>
  <path id="leaf1" class="fil0" d="M4749.27 7093.07c-552.08,-1500 -2484.37,-2916.67 -4265.63,-3343.75 661.46,520.83 767.75,1898.03 1786.46,2750 546.07,456.69 1552.08,864.58 2479.17,593.75z"/>
  <path id="leaf2" class="fil0" d="M936.77 3676.41c2302.08,322.92 3760.41,1635.42 4104.17,3895.83 -916.67,-2718.75 -3197.92,-3604.17 -4104.17,-3895.83z"/>
  <path id="leaf3" class="fil0" d="M5205.57 5486c-10.66,-1003.33 -855.11,-2248 -1818.6,-2875.63 281.52,447.29 54.39,1284.13 477.46,2002.48 226.78,385.06 735.84,838.11 1341.14,873.15z"/>
  <path id="leaf4" class="fil0" d="M3710.56 2662.55c861.62,409.69 1403.29,1086.78 1622.04,2524.28 -260.42,-1208.33 -1079.86,-2227.72 -1622.04,-2524.28z"/>
  <path id="leaf5" class="fil0" d="M5512.91 7727.86c-146.05,-2361.64 1645.78,-5458.43 3804.85,-7098.93 -735.16,1287.06 73.11,3054.88 -799.42,4816.57 -467.71,944.33 -1587.76,2096.72 -3005.43,2282.36z"/>
  <path id="leaf6" class="fil0" d="M8534.77 967.31c-2358.42,1292.43 -3743.83,4136.18 -3285.5,7959.09 -190.34,-4572.09 2258.34,-7223.66 3285.5,-7959.09z"/>
  <path class="fil0" d="M3640.63 1062.5c368.19,0 666.67,298.48 666.67,666.67 0,368.19 -298.48,666.67 -666.67,666.67 -368.19,0 -666.67,-298.48 -666.67,-666.67 0,-368.19 298.48,-666.67 666.67,-666.67zm221.3 187.62c136.6,0 247.33,110.74 247.33,247.33 0,136.6 -110.74,247.34 -247.33,247.34 -136.6,0 -247.34,-110.74 -247.34,-247.34 0,-136.6 110.74,-247.33 247.34,-247.33z"/>
  <path class="fil0" d="M2401.15 2703.13c304.96,0 552.19,247.22 552.19,552.19 0,304.97 -247.22,552.19 -552.19,552.19 -304.97,0 -552.19,-247.22 -552.19,-552.19 0,-304.96 247.22,-552.19 552.19,-552.19zm172.11 144.38c113.15,0 204.87,91.72 204.87,204.87 0,113.15 -91.72,204.87 -204.87,204.87 -113.14,0 -204.87,-91.72 -204.87,-204.87 0,-113.15 91.72,-204.87 204.87,-204.87z"/>
  <path class="fil0" d="M5403.65 2453.13c243.06,0 440.1,197.04 440.1,440.11 0,243.06 -197.04,440.1 -440.1,440.1 -243.06,0 -440.11,-197.04 -440.11,-440.1 0,-243.06 197.04,-440.11 440.11,-440.11zm91.71 96.7c90.18,0 163.28,73.1 163.28,163.28 0,90.18 -73.1,163.28 -163.28,163.28 -90.18,0 -163.28,-73.11 -163.28,-163.28 0,-90.18 73.11,-163.28 163.28,-163.28z"/>
 </g>
</svg>
